<svg width="1138" height="733" viewBox="0 0 1138 733" fill="none" xmlns="http://www.w3.org/2000/svg">
<g clip-path="url(#clip0_49_132)">
<rect width="1138" height="733" fill="white"/>
<rect x="-1364" y="-77" width="2604" height="1658" fill="#F0EBE9"/>
<rect x="925.519" y="196.819" width="26.5383" height="389.78" fill="#FBAA19"/>
<rect x="952.058" y="196.82" width="26.5383" height="389.78" fill="#EF3E37"/>
<rect x="1033.66" y="553.759" width="26.5383" height="368.882" transform="rotate(90 1033.66 553.759)" fill="#EF3E37"/>
<rect x="978.596" y="190.185" width="26.5383" height="418.973" fill="#ED193D"/>
<rect x="1069.16" y="580.297" width="26.5383" height="412.67" transform="rotate(90 1069.16 580.297)" fill="#ED193D"/>
<rect x="1005.13" y="203.122" width="26.5383" height="427.597" fill="#B51E42"/>
<rect x="1095.7" y="606.835" width="26.5383" height="448.165" transform="rotate(90 1095.7 606.835)" fill="#B51E42"/>
<rect x="944.096" y="527.22" width="26.5383" height="268.7" transform="rotate(90 944.096 527.22)" fill="#FBAA19"/>
<rect x="517.329" y="650.906" width="26.5383" height="389.78" transform="rotate(-180 517.329 650.906)" fill="#FBAA19"/>
<rect x="490.791" y="650.906" width="26.5383" height="389.78" transform="rotate(-180 490.791 650.906)" fill="#EF3E37"/>
<rect x="409.186" y="293.967" width="26.5383" height="368.882" transform="rotate(-90 409.186 293.967)" fill="#EF3E37"/>
<rect x="464.253" y="657.541" width="26.5383" height="418.973" transform="rotate(-180 464.253 657.541)" fill="#ED193D"/>
<rect x="373.691" y="267.428" width="26.5383" height="412.67" transform="rotate(-90 373.691 267.428)" fill="#ED193D"/>
<rect x="437.714" y="644.603" width="26.5383" height="427.597" transform="rotate(-180 437.714 644.603)" fill="#B51E42"/>
<rect x="347.152" y="240.89" width="26.5383" height="448.165" transform="rotate(-90 347.152 240.89)" fill="#B51E42"/>
<rect x="498.752" y="320.505" width="26.5383" height="268.7" transform="rotate(-90 498.752 320.505)" fill="#FBAA19"/>
<rect x="606.654" y="64.5281" width="26.5383" height="389.78" fill="#FBAA19"/>
<rect x="633.192" y="64.5286" width="26.5383" height="389.78" fill="#EF3E37"/>
<rect x="714.797" y="421.468" width="26.5383" height="368.882" transform="rotate(90 714.797 421.468)" fill="#EF3E37"/>
<rect x="659.73" y="57.8936" width="26.5383" height="418.973" fill="#ED193D"/>
<rect x="750.292" y="448.006" width="26.5383" height="412.67" transform="rotate(90 750.292 448.006)" fill="#ED193D"/>
<rect x="686.268" y="70.8311" width="26.5383" height="427.597" fill="#B51E42"/>
<rect x="776.83" y="474.544" width="26.5383" height="448.165" transform="rotate(90 776.83 474.544)" fill="#B51E42"/>
<rect x="625.23" y="394.929" width="26.5383" height="268.7" transform="rotate(90 625.23 394.929)" fill="#FBAA19"/>
<rect x="198.464" y="518.615" width="26.5383" height="389.78" transform="rotate(-180 198.464 518.615)" fill="#FBAA19"/>
<rect x="171.925" y="518.615" width="26.5383" height="389.78" transform="rotate(-180 171.925 518.615)" fill="#EF3E37"/>
<rect x="90.3203" y="161.675" width="26.5383" height="368.882" transform="rotate(-90 90.3203 161.675)" fill="#EF3E37"/>
<rect x="145.387" y="525.25" width="26.5383" height="418.973" transform="rotate(-180 145.387 525.25)" fill="#ED193D"/>
<rect x="54.8253" y="135.137" width="26.5383" height="412.67" transform="rotate(-90 54.8253 135.137)" fill="#ED193D"/>
<rect x="118.849" y="512.312" width="26.5383" height="427.597" transform="rotate(-180 118.849 512.312)" fill="#B51E42"/>
<rect x="28.2869" y="108.599" width="26.5383" height="448.165" transform="rotate(-90 28.2869 108.599)" fill="#B51E42"/>
<rect x="179.887" y="188.214" width="26.5383" height="268.7" transform="rotate(-90 179.887 188.214)" fill="#FBAA19"/>
</g>
<defs>
<clipPath id="clip0_49_132">
<rect width="1138" height="733" fill="white"/>
</clipPath>
</defs>
</svg>
