<svg width="1304" height="1073" viewBox="0 0 1304 1073" fill="none" xmlns="http://www.w3.org/2000/svg">
<g clip-path="url(#clip0_49_132)">
<rect width="1304" height="1073" fill="white"/>
<rect x="-24" y="-57" width="1403" height="1658" fill="#F0EBE9"/>
<path d="M37 320.5L-5.75 345.182L-5.75 295.818L37 320.5Z" fill="#1B1B1B"/>
<rect x="984" y="-235" width="80.0002" height="1175" fill="#FBAA19"/>
<rect x="1064" y="-235" width="80.0003" height="1175" fill="#EF3E37"/>
<rect x="1310" y="841" width="80.0002" height="1112" transform="rotate(90 1310 841)" fill="#EF3E37"/>
<rect x="1144" y="-255" width="80.0003" height="1263" fill="#ED193D"/>
<rect x="1417" y="921" width="80.0002" height="1244" transform="rotate(90 1417 921)" fill="#ED193D"/>
<rect x="1224" y="-216" width="80.0003" height="1289" fill="#B51E42"/>
<rect x="1497" y="1001" width="80.0002" height="1351" transform="rotate(90 1497 1001)" fill="#B51E42"/>
<rect x="1040" y="761" width="80.0001" height="810" transform="rotate(90 1040 761)" fill="#FBAA19"/>
</g>
<defs>
<clipPath id="clip0_49_132">
<rect width="1304" height="1073" fill="white"/>
</clipPath>
</defs>
</svg>
